# xmcd
#
# Track frame offsets: 
#        150
#        20385
#        39456
#        66742
#        87222
#        129756
#        163426
#        183565
#        201755
#        235797
#
# Disc length: 3465 seconds
#
# Revision: 0
# Processed by: cddbd v1.5.2PL0 Copyright (c) Steve Scherf et al.
# Submitted via: ExactAudioCopyFreeDBPlugin 1.0
#
DISCID=870d870a
DTITLE=Cree - Heartbreaker
DYEAR=2015
DGENRE=Blues
TTITLE0=Nigdy mało
TTITLE1=Z nieba spadło
TTITLE2=Na dnie Twojego serca
TTITLE3=Każdy rodzi się świętym
TTITLE4=Możesz na mnie liczyć
TTITLE5=Modlitwa Bluesmana w pociągu
TTITLE6=Głodne duchy
TTITLE7=Wielkie plany
TTITLE8=7 Rano
TTITLE9=Heartbreaker girl
EXTD=
EXTT0=
EXTT1=
EXTT2=
EXTT3=
EXTT4=
EXTT5=
EXTT6=
EXTT7=
EXTT8=
EXTT9=
PLAYORDER=
